<svg xmlns="http://www.w3.org/2000/svg" viewBox="0 0 126 44.3"><style>.st0{fill:#D44673}.st1{fill:#323031}.st2{fill:#D44673;stroke:#D44673;stroke-width:3.359771e-02;stroke-miterlimit:10}</style><path class="st0" d="M4 29.9H0V0h18.7v15.2H4zM11.5 22.8h7.2V30h-7.2z"/><path class="st0" d="M18.7 21v-4H5.8v12.9h3.9V21z"/><g><path class="st1" d="M32.9 23.1h-5.2v6.8h-.8V13.4h5.5c3.3 0 4.9 1.4 4.9 4.7 0 2.6-.9 4.4-3.4 4.8l3.7 7h-1l-3.7-6.8zm-.5-8.9h-4.6v8.1h4.6c3.1 0 4-1.6 4-4.2 0-2.7-1.3-3.9-4-3.9M50.1 28.4c.1.7 1 .9 1.8 1v.8c-1 0-1.9-.2-2.4-.9 0 0-2.2 1-4.9 1-1.8 0-3-1.2-3-3.4 0-2 .9-3.2 3.3-3.4l4.5-.5v-1.2c0-2.1-.9-2.9-2.6-2.9-1.7 0-4.5.4-4.5.4l-.1-.8s2.6-.4 4.5-.4c2.4 0 3.4 1.3 3.4 3.7v6.6zM44.9 24c-1.8.2-2.5 1.2-2.5 2.7 0 1.7.8 2.7 2.1 2.7 2.3 0 4.7-.9 4.7-.9v-4.8l-4.3.3zM55.7 18.1h.8v1s1.9-1.2 4.1-1.2c2.9 0 4.9 1.9 4.9 5.9 0 4.4-2.2 6.3-5.9 6.3-1.3 0-2.6-.2-3.1-.3v5.5h-.8V18.1zm.8 1.8V29c.5.1 1.8.3 3.1.3 3 0 5-1.5 5-5.6 0-3.8-2-5.1-4.1-5.1-1.9.1-4 1.3-4 1.3M70.8 15h.8v.9h-.8V15zm0 3.1h.8v11.8h-.8V18.1zM86.2 29.9h-.8v-1s-1.9 1.2-4.1 1.2c-1.5 0-4.9-.2-4.9-5.9 0-4.1 2-6.3 5.8-6.3 1.1 0 2.5.2 3.1.3v-4.8h.8v16.5zm-.8-1.7V19c-.6-.1-2.2-.3-3.1-.3-3.4 0-5 2-5 5.6 0 4.7 2.7 5.1 4.1 5.1 1.9 0 4-1.2 4-1.2M94.2 25.3v4.6H91V13.7h5.4c3.8 0 5.7 1.9 5.7 5.7 0 3.8-1.9 5.9-5.7 5.9h-2.2zm2.2-3.2c1.6 0 2.4-1 2.4-2.8 0-1.7-.8-2.5-2.4-2.5h-2.1v5.4h2.1zM108.5 19.2v-1.1h-3.2v11.8h3.2v-7.6s1.2-.6 3.3-1v-3c-1.7.2-3.1.8-3.3.9M119.8 17.9c-3.4 0-6.2 2.8-6.2 6.2 0 3.4 2.8 6.2 6.2 6.2 3.4 0 6.2-2.8 6.2-6.2 0-3.5-2.8-6.2-6.2-6.2m0 9.3c-1.7 0-3.1-1.4-3.1-3.1 0-1.7 1.4-3.1 3.1-3.1 1.7 0 3.1 1.4 3.1 3.1.1 1.7-1.3 3.1-3.1 3.1"/></g><g><path class="st2" d="M85.4 41.1h-3.6v3.2H81v-7.2h.8v3.2h3.6v-3.2h.8v7.2h-.8v-3.2zM89.9 37.1h4.3v.8h-3.5v2.4h2.9v.7h-2.9v2.5h3.5v.8h-4.3v-7.2zM98.9 37.1h1.7l1.9 7.2h-.8l-.5-1.8h-3l-.5 1.8H97l1.9-7.2zm-.4 4.6h2.6l-1.1-3.9h-.5l-1 3.9zM105.7 44.3v-7.2h.8v6.4h3.1v.8h-3.9zM111.9 37.1h5.2v.8h-2.2v6.4h-.8v-6.4h-2.2v-.8zM124.3 41.1h-3.6v3.2h-.8v-7.2h.8v3.2h3.6v-3.2h.8v7.2h-.8v-3.2z"/></g></svg>
